<?xml version="1.0" standalone="no"?>
<!DOCTYPE svg PUBLIC "-//W3C//DTD SVG 20010904//EN"
 "http://www.w3.org/TR/2001/REC-SVG-20010904/DTD/svg10.dtd">
<svg version="1.0" xmlns="http://www.w3.org/2000/svg"
 width="200.000000pt" height="200.000000pt" viewBox="0 0 200.000000 200.000000"
 preserveAspectRatio="xMidYMid meet">
<metadata>
Created by potrace 1.14, written by Peter Selinger 2001-2017
</metadata>
<g transform="translate(0.000000,200.000000) scale(0.100000,-0.100000)"
fill="#000000" stroke="none">
<path d="M829 1763 c-1 -5 -1 -12 0 -16 1 -5 -3 -6 -8 -2 -6 3 -50 -18 -98
-47 -48 -28 -131 -77 -183 -108 l-95 -57 0 -194 c0 -118 4 -197 10 -201 6 -5
5 -8 -3 -8 -7 0 -11 -4 -7 -9 3 -5 -8 -19 -24 -31 l-30 -21 5 -157 c2 -86 4
-191 3 -233 0 -70 2 -76 25 -88 13 -7 30 -10 37 -6 7 5 10 4 5 -3 -3 -6 3 -16
14 -22 11 -6 20 -7 20 -3 0 4 4 3 8 -3 8 -13 289 -174 302 -174 5 0 93 50 194
111 l184 110 31 -15 c28 -15 33 -15 66 1 19 9 35 20 35 25 0 4 4 8 9 8 21 0
151 86 152 100 0 9 2 10 5 3 7 -16 94 37 94 57 0 10 3 11 8 4 5 -8 16 -5 37
10 24 17 30 28 29 57 0 19 -4 40 -7 46 -4 7 -3 14 3 18 15 9 1 27 -16 21 -7
-3 -16 -1 -19 5 -4 5 -3 9 2 8 33 -6 34 0 32 166 l-2 165 -106 59 c-105 58
-225 124 -265 145 -12 6 -23 22 -24 36 -4 28 0 26 -145 103 -60 31 -113 54
-119 51 -7 -4 -8 -2 -4 4 8 13 -23 31 -42 25 -7 -3 -11 1 -10 8 2 8 -7 15 -19
17 -13 2 -23 9 -23 15 0 7 -4 6 -10 -3 -8 -13 -10 -12 -10 4 0 12 -5 16 -16
12 -8 -3 -12 -2 -9 4 3 6 1 10 -4 10 -6 0 -12 -3 -12 -7z m32 -50 c13 -16 12
-17 -3 -4 -10 7 -18 15 -18 17 0 8 8 3 21 -13z m50 -16 c-10 -9 -11 -8 -5 6 3
10 9 15 12 12 3 -3 0 -11 -7 -18z m53 -18 c3 -2 -9 -5 -26 -6 -18 0 -26 2 -18
7 13 8 36 8 44 -1z m-72 -16 c-6 -2 -10 -9 -7 -13 3 -5 -3 -13 -13 -19 -14 -7
-19 -6 -19 4 0 7 7 11 14 8 8 -3 13 -2 12 3 -3 17 1 24 14 23 9 0 9 -2 -1 -6z
m-85 -18 c0 -8 -4 -12 -9 -9 -5 3 -6 10 -3 15 9 13 12 11 12 -6z m88 -25 c-3
-5 -12 -10 -18 -10 -7 0 -6 4 3 10 19 12 23 12 15 0z m-65 -4 c0 -2 -8 -10
-17 -17 -16 -13 -17 -12 -4 4 13 16 21 21 21 13z m105 -16 c3 -6 -1 -7 -9 -4
-18 7 -21 14 -7 14 6 0 13 -4 16 -10z m-49 -26 c1 -9 0 -13 -4 -10 -3 4 -7 14
-8 22 -1 9 0 13 4 10 3 -4 7 -14 8 -22z m84 6 c0 -5 -5 -10 -11 -10 -5 0 -7 5
-4 10 3 6 8 10 11 10 2 0 4 -4 4 -10z m-160 -84 c0 -3 -5 -6 -11 -6 -5 0 -8 4
-5 9 3 5 -1 14 -9 21 -8 7 -15 17 -15 23 0 5 9 -2 20 -16 11 -14 20 -28 20
-31z m-80 40 c0 -2 -8 -10 -17 -17 -16 -13 -17 -12 -4 4 13 16 21 21 21 13z
m128 -13 c-6 -7 -12 -13 -13 -13 -2 0 -5 6 -8 13 -3 7 3 13 14 13 13 0 15 -3
7 -13z m108 -25 c3 -4 -1 -5 -10 -4 -8 1 -18 5 -22 8 -3 4 1 5 10 4 8 -1 18
-5 22 -8z m-235 -15 c13 -16 12 -17 -3 -4 -10 7 -18 15 -18 17 0 8 8 3 21 -13z
m53 -9 c3 -7 -2 -10 -15 -7 -22 6 -26 20 -4 20 8 0 16 -6 19 -13z m120 0 c3
-8 2 -12 -4 -9 -6 3 -10 10 -10 16 0 14 7 11 14 -7z m-153 -56 c-10 -11 -11
-9 -5 6 5 12 4 17 -3 13 -5 -3 -10 1 -10 9 0 13 2 13 16 0 12 -13 13 -18 2
-28z m63 20 c-5 -7 -9 -19 -10 -26 -5 -27 -12 -22 -10 7 0 16 4 27 8 25 5 -3
8 0 8 7 0 7 3 10 6 6 3 -3 2 -12 -2 -19z m56 -12 c0 -3 -4 -8 -10 -11 -5 -3
-10 -1 -10 4 0 6 5 11 10 11 6 0 10 -2 10 -4z m37 -18 c2 -17 0 -19 -7 -8 -5
8 -6 18 -4 22 8 12 10 10 11 -14z m-197 8 c0 -2 -8 -10 -17 -17 -16 -13 -17
-12 -4 4 13 16 21 21 21 13z m-46 -22 c3 -8 2 -12 -4 -9 -6 3 -10 10 -10 16 0
14 7 11 14 -7z m76 -8 c0 -2 -9 -6 -20 -9 -11 -3 -18 -1 -14 4 5 9 34 13 34 5z
m35 -6 c3 -6 -1 -7 -9 -4 -18 7 -21 14 -7 14 6 0 13 -4 16 -10z m-141 -38 c3
-5 -1 -9 -9 -9 -8 0 -12 4 -9 9 3 4 7 8 9 8 2 0 6 -4 9 -8z m24 -19 c-9 -10
-14 -26 -13 -35 2 -10 0 -20 -4 -23 -13 -8 -6 42 8 59 7 9 16 16 19 16 3 0 -2
-8 -10 -17z m92 -1 c0 -5 -7 -9 -15 -9 -8 0 -12 4 -9 9 3 4 9 8 15 8 5 0 9 -4
9 -8z m-66 -11 c3 -5 -1 -11 -9 -14 -9 -4 -12 -1 -8 9 6 16 10 17 17 5z m-74
-29 c0 -5 -7 -9 -15 -9 -8 0 -12 4 -9 9 3 4 9 8 15 8 5 0 9 -4 9 -8z m-60 -18
c0 -8 -19 -13 -24 -6 -3 5 1 9 9 9 8 0 15 -2 15 -3z m145 -4 c-3 -5 -12 -10
-18 -10 -7 0 -6 4 3 10 19 12 23 12 15 0z m-108 -349 c0 -11 -5 -18 -9 -15 -4
3 -5 11 -1 19 7 21 12 19 10 -4z m1018 -30 c3 -5 2 -12 -3 -15 -5 -3 -9 1 -9
9 0 17 3 19 12 6z m-919 -38 c-2 -15 -9 -29 -17 -31 -9 -2 -10 0 -4 5 6 4 10
18 9 31 -1 12 2 22 7 22 4 0 6 -12 5 -27z m-83 2 c-3 -9 -8 -14 -10 -11 -3 3
-2 9 2 15 9 16 15 13 8 -4z m1017 0 c-7 -8 -17 -15 -23 -15 -6 0 -2 7 9 15 25
19 30 19 14 0z m-830 -21 c0 -8 -19 -13 -24 -6 -3 5 1 9 9 9 8 0 15 -2 15 -3z
m-144 -21 c-1 -7 -5 -15 -9 -18 -4 -3 -5 -2 -2 2 3 3 -2 11 -11 17 -13 10 -13
12 4 12 11 0 19 -6 18 -13z m78 -4 c3 -3 -5 -5 -19 -5 -13 0 -22 3 -19 7 4 8
30 6 38 -2z m-120 -25 c3 -8 2 -12 -4 -9 -6 3 -10 10 -10 16 0 14 7 11 14 -7z
m-36 -19 c-3 -3 -9 2 -12 12 -6 14 -5 15 5 6 7 -7 10 -15 7 -18z m86 -14 c4
-5 -3 -7 -14 -4 -23 6 -26 13 -6 13 8 0 17 -4 20 -9z m72 -46 c-1 -8 -5 -17
-8 -21 -5 -4 -4 16 1 34 3 9 9 -1 7 -13z m-71 -15 c-3 -5 -12 -10 -18 -10 -7
0 -6 4 3 10 19 12 23 12 15 0z m30 -9 c3 -5 2 -12 -3 -15 -5 -3 -9 1 -9 9 0
17 3 19 12 6z m-108 -7 c-3 -3 -12 -4 -19 -1 -8 3 -5 6 6 6 11 1 17 -2 13 -5z
m38 -4 c3 -6 -1 -7 -9 -4 -18 7 -21 14 -7 14 6 0 13 -4 16 -10z m29 -30 c-6
-6 -10 -3 -10 10 0 13 4 16 10 10 7 -7 7 -13 0 -20z m-154 12 c0 -5 -7 -9 -15
-9 -8 0 -12 4 -9 9 3 4 9 8 15 8 5 0 9 -4 9 -8z m91 -15 c-10 -9 -11 -8 -5 6
3 10 9 15 12 12 3 -3 0 -11 -7 -18z m-51 -47 c0 -5 -4 -10 -10 -10 -5 0 -10 5
-10 10 0 6 5 10 10 10 6 0 10 -4 10 -10z m75 -8 c-3 -3 -11 0 -18 7 -9 10 -8
11 6 5 10 -3 15 -9 12 -12z m-30 -32 c3 -6 -1 -7 -9 -4 -18 7 -21 14 -7 14 6
0 13 -4 16 -10z"/>
</g>
</svg>
